<?xml version="1.0" encoding="UTF-8"?>
<svg version="1.1" xmlns="http://www.w3.org/2000/svg" width="35" height="35">
<path d="M0 0 C5.03359633 2.3843351 8.49996787 5.99993573 11 11 C11.49328755 16.85475711 11.85744288 22.18984281 9.3125 27.5625 C2.45244236 34.79337157 2.45244236 34.79337157 -2.828125 35.23828125 C-14.2710162 35.48647181 -14.2710162 35.48647181 -19 31 C-24.02647617 25.2942703 -24.3474964 21.71771726 -24.28125 14.20703125 C-23.79873953 8.70507163 -21.3721814 6.20882647 -17.375 2.6875 C-12.03156386 -1.10915199 -6.37985635 -0.55950019 0 0 Z " fill="#050803" transform="translate(24,0)"/>
<path d="M0 0 C5.28 0 10.56 0 16 0 C16 0.66 16 1.32 16 2 C11.71 2 7.42 2 3 2 C3 3.98 3 5.96 3 8 C4.98 8 6.96 8 9 8 C9 8.66 9 9.32 9 10 C11.64 10 14.28 10 17 10 C17 13.63 17 17.26 17 21 C11.72 21 6.44 21 1 21 C1 20.34 1 19.68 1 19 C5.62 19 10.24 19 15 19 C15 17.02 15 15.04 15 13 C12.69 13 10.38 13 8 13 C8 12.34 8 11.68 8 11 C5.36 11 2.72 11 0 11 C0 7.37 0 3.74 0 0 Z " fill="#5CFB8C" transform="translate(9,7)"/>
<path d="M0 0 C4.95 0 9.9 0 15 0 C15 0.66 15 1.32 15 2 C10.71 2 6.42 2 2 2 C2 3.98 2 5.96 2 8 C3.65 8 5.3 8 7 8 C7 8.66 7 9.32 7 10 C4.69 10 2.38 10 0 10 C0 6.7 0 3.4 0 0 Z " fill="#F4E41B" transform="translate(10,7)"/>
<path d="M0 0 C0.33 0 0.66 0 1 0 C1 3.3 1 6.6 1 10 C3.31 10 5.62 10 8 10 C8.33 9.34 8.66 8.68 9 8 C9 8.66 9 9.32 9 10 C11.64 10 14.28 10 17 10 C17 13.63 17 17.26 17 21 C16.67 21 16.34 21 16 21 C16 17.7 16 14.4 16 11 C13.69 11 11.38 11 9 11 C8.67 11.66 8.34 12.32 8 13 C8 12.34 8 11.68 8 11 C5.36 11 2.72 11 0 11 C0 7.37 0 3.74 0 0 Z " fill="#5C8338" transform="translate(9,7)"/>
<path d="M0 0 C0.33 0 0.66 0 1 0 C1 1.98 1 3.96 1 6 C2.65 6 4.3 6 6 6 C6 6.66 6 7.32 6 8 C3.69 8 1.38 8 -1 8 C-1.125 2.25 -1.125 2.25 0 0 Z " fill="#C6EA58" transform="translate(11,9)"/>
</svg>
